<svg width="42" height="42" viewBox="0 0 42 42" fill="none" xmlns="http://www.w3.org/2000/svg">
<path d="M21.0642 16.0004C18.303 15.9648 16.0358 18.1743 16.0001 20.9355C15.9645 23.6967 18.174 25.9639 20.9352 25.9996C23.6964 26.0352 25.9637 23.8257 25.9993 21.0645C26.0349 18.3033 23.8254 16.036 21.0642 16.0004Z" stroke="white" stroke-width="1.5"/>
<path d="M32.9358 9.36798C26.512 2.77624 15.9595 2.64012 9.3678 9.06397C2.77606 15.4878 2.63994 26.0403 9.06379 32.632C15.4876 39.2237 26.0401 39.3599 32.6318 32.936C39.2236 26.5122 39.3597 15.9597 32.9358 9.36798Z" stroke="white" stroke-width="1.5" stroke-linecap="round"/>
<path d="M28.758 13.4378C29.7511 14.4567 30.5337 15.6612 31.0612 16.9825C31.5887 18.3039 31.8508 19.7163 31.8325 21.1389C31.8141 22.5616 31.5157 23.9667 30.9543 25.274C30.3928 26.5813 29.5794 27.7652 28.5604 28.7582M13.2417 28.5606C12.2486 27.5417 11.466 26.3372 10.9384 25.0158C10.4109 23.6944 10.1489 22.2821 10.1672 20.8594C10.1856 19.4368 10.484 18.0317 11.0454 16.7244C11.6068 15.417 12.4203 14.2331 13.4393 13.2402" stroke="white" stroke-width="1.5" stroke-linecap="round"/>
</svg>
